<svg width="715" height="285" viewBox="0 0 715 285" fill="none" xmlns="http://www.w3.org/2000/svg">
<path d="M456.669 240.999C454.13 238.46 454.13 234.345 456.669 231.806L498.035 190.44C500.573 187.902 504.689 187.902 507.227 190.44C509.765 192.979 509.765 197.094 507.227 199.633L470.457 236.402L507.227 273.172C509.765 275.71 509.765 279.826 507.227 282.364C504.689 284.903 500.573 284.903 498.035 282.364L456.669 240.999ZM461.265 229.902C465.828 229.902 470.328 229.888 474.768 229.858L474.854 242.858C470.386 242.887 465.856 242.902 461.265 242.902L461.265 229.902ZM500.772 229.504C509.892 229.312 518.716 229.054 527.243 228.73L527.737 241.72C519.132 242.047 510.234 242.308 501.045 242.501L500.772 229.504ZM553.59 227.467C562.717 226.932 571.442 226.313 579.763 225.613L580.853 238.567C572.414 239.277 563.579 239.904 554.35 240.444L553.59 227.467ZM605.8 223.006C615.057 221.915 623.672 220.704 631.64 219.382L633.768 232.207C625.574 233.566 616.755 234.805 607.321 235.916L605.8 223.006ZM656.92 214.302C666.554 211.954 674.641 209.399 681.217 206.685L686.175 218.702C678.827 221.735 670.077 224.476 659.999 226.932L656.92 214.302ZM699.919 194.424C701.636 192.035 702.106 189.898 701.807 187.761C701.482 185.435 700.139 182.403 696.906 178.663L706.74 170.161C710.973 175.057 713.897 180.339 714.682 185.963C715.494 191.776 713.917 197.225 710.474 202.013L699.919 194.424ZM677.84 163.63C671.565 159.786 664.072 155.803 655.32 151.7L660.839 139.929C669.919 144.187 677.854 148.394 684.63 152.544L677.84 163.63ZM631.355 141.425C623.8 138.436 615.639 135.405 606.866 132.338L611.157 120.067C620.075 123.185 628.401 126.276 636.138 129.337L631.355 141.425ZM582.081 124.096C574.12 121.571 565.761 119.027 557 116.466L560.648 103.988C569.496 106.575 577.95 109.148 586.011 111.704L582.081 124.096ZM531.551 109.289C523.352 107.056 514.854 104.812 506.055 102.559L509.279 89.965C518.139 92.2334 526.702 94.4943 534.968 96.7462L531.551 109.289ZM480.78 96.2657C472.409 94.2373 463.797 92.2033 454.943 90.1646L457.859 77.4961C466.76 79.5454 475.421 81.5908 483.842 83.6313L480.78 96.2657ZM429.395 84.4193C421.014 82.5774 412.436 80.7327 403.66 78.8861L406.336 66.1646C415.149 68.019 423.766 69.8718 432.186 71.7223L429.395 84.4193ZM377.759 73.5477C369.359 71.8514 360.793 70.1543 352.059 68.4568L354.539 55.6956C363.304 57.3989 371.901 59.1023 380.332 60.8049L377.759 73.5477ZM326.022 63.4895C317.578 61.9078 308.987 60.3265 300.25 58.7459L302.564 45.9536C311.327 47.5388 319.944 49.125 328.415 50.7117L326.022 63.4895ZM274.224 54.1167C265.701 52.6259 257.046 51.1363 248.26 49.6483L250.431 36.8308C259.24 38.3226 267.917 39.8162 276.464 41.3111L274.224 54.1167ZM222.345 45.3274C213.707 43.9094 204.95 42.4934 196.071 41.0796L198.115 28.2413C207.014 29.6583 215.793 31.0777 224.451 32.4991L222.345 45.3274ZM170.334 37.0404C161.644 35.6963 152.845 34.3546 143.935 33.0156L145.867 20.16C154.795 21.5017 163.613 22.8462 172.321 24.1932L170.334 37.0404ZM118.126 29.1905C109.523 27.9328 100.821 26.6778 92.0198 25.4258L93.8506 12.5554C102.668 13.8097 111.386 15.067 120.006 16.3272L118.126 29.1905ZM65.6516 21.725C57.1421 20.5467 48.544 19.3713 39.8568 18.199L41.5953 5.31577C50.2972 6.49002 58.9102 7.66747 67.4347 8.8479L65.6516 21.725ZM13.5284 14.6919C9.09567 14.1091 4.64068 13.5271 0.163356 12.9459L1.83666 0.05407C6.32111 0.636131 10.7833 1.21908 15.2232 1.80289L13.5284 14.6919Z" fill="#F5EC10"/>
</svg>
