<svg width="716" height="347" viewBox="0 0 716 347" fill="none" xmlns="http://www.w3.org/2000/svg">
<path d="M180.292 299.936C182.649 297.229 182.365 293.123 179.658 290.766L135.537 252.352C132.83 249.995 128.724 250.279 126.367 252.986C124.009 255.694 124.293 259.799 127.001 262.157L166.219 296.302L132.074 335.521C129.716 338.228 130 342.334 132.708 344.691C135.415 347.048 139.521 346.764 141.878 344.057L180.292 299.936ZM174.941 289.184C170.414 289.497 165.99 289.773 161.669 290.013L162.39 302.993C166.772 302.749 171.254 302.47 175.838 302.153L174.941 289.184ZM136.959 291.027C127.889 291.256 119.358 291.3 111.35 291.169L111.137 304.168C119.342 304.302 128.055 304.256 137.288 304.023L136.959 291.027ZM86.3381 290.081C77.2508 289.403 69.0766 288.439 61.7711 287.218L59.6278 300.04C67.3836 301.336 75.9561 302.342 85.371 303.045L86.3381 290.081ZM38.277 281.457C29.1722 278.259 22.9744 274.512 19.0357 270.592L9.86511 279.806C15.6264 285.54 23.7473 290.132 33.9686 293.722L38.277 281.457ZM13.3829 253.315C14.3135 247.634 17.3506 240.941 22.8519 233.328L12.315 225.714C6.13777 234.263 1.92603 242.836 0.553896 251.214L13.3829 253.315ZM39.0529 215.145C44.5626 209.864 50.8835 204.421 57.9658 198.855L49.9333 188.634C42.5753 194.416 35.9239 200.137 30.0577 205.759L39.0529 215.145ZM78.1253 184.092C84.6958 179.579 91.693 175.022 99.0873 170.441L92.2411 159.39C84.6882 164.069 77.5183 168.737 70.7646 173.377L78.1253 184.092ZM120.63 157.667C127.711 153.641 135.069 149.612 142.686 145.594L136.619 134.096C128.888 138.175 121.409 142.269 114.204 146.367L120.63 157.667ZM165.195 134.119C172.637 130.451 180.279 126.803 188.104 123.185L182.649 111.385C174.728 115.047 166.989 118.742 159.448 122.459L165.195 134.119ZM211.086 112.876C218.691 109.567 226.441 106.292 234.322 103.059L229.389 91.0317C221.424 94.2987 213.589 97.6096 205.899 100.956L211.086 112.876ZM257.885 93.6765C265.665 90.6691 273.555 87.7079 281.541 84.7999L277.093 72.5845C269.027 75.5215 261.058 78.5126 253.198 81.5509L257.885 93.6765ZM305.35 76.3893C313.294 73.6687 321.318 71.0051 329.412 68.4049L325.436 56.0278C317.263 58.6535 309.16 61.3432 301.138 64.0906L305.35 76.3893ZM353.525 60.9121C361.568 58.4967 369.668 56.1482 377.814 53.8726L374.317 41.3519C366.089 43.6503 357.908 46.0222 349.786 48.4613L353.525 60.9121ZM402.26 47.302C410.4 45.2003 418.576 43.1758 426.778 41.2343L423.783 28.5839C415.495 30.5459 407.234 32.5915 399.01 34.7148L402.26 47.302ZM451.443 35.6662C459.682 33.8975 467.936 32.2176 476.197 30.6322L473.747 17.8652C465.391 19.4689 457.044 21.1677 448.715 22.9558L451.443 35.6662ZM501.079 26.1501C509.394 24.7514 517.706 23.4544 526.004 22.2648L524.159 9.39634C515.755 10.6012 507.339 11.9145 498.923 13.3301L501.079 26.1501ZM551.058 18.9996C559.457 18.0164 567.832 17.1504 576.172 16.4079L575.019 3.45909C566.556 4.21264 558.062 5.091 549.546 6.08775L551.058 18.9996ZM601.235 14.5468C609.708 14.046 618.133 13.6816 626.498 13.46L626.154 0.464602C617.643 0.68999 609.077 1.0606 600.468 1.56943L601.235 14.5468ZM651.674 13.2331C660.104 13.3089 668.458 13.5415 676.724 13.9377L677.347 0.952565C668.905 0.548019 660.382 0.310915 651.791 0.233606L651.674 13.2331ZM701.893 15.6822C706.041 16.062 710.164 16.4868 714.258 16.9576L715.743 4.04269C711.547 3.5602 707.324 3.1251 703.078 2.73634L701.893 15.6822Z" fill="#F5EC10"/>
</svg>
