<svg width="363" height="202" viewBox="0 0 363 202" fill="none" xmlns="http://www.w3.org/2000/svg">
<path d="M0.5 130L22.7808 201.672L73.7103 146.54L0.5 130ZM292.833 96.4999C292.833 115.646 308.354 131.167 327.5 131.167C346.646 131.167 362.167 115.646 362.167 96.4999C362.167 77.354 346.646 61.8332 327.5 61.8332C308.354 61.8332 292.833 77.354 292.833 96.4999ZM28.5741 158.482C37.2547 162.578 46.0395 165.093 54.8708 166.225L56.5239 153.33C49.0465 152.372 41.5758 150.243 34.1223 146.725L28.5741 158.482ZM82.2085 165.552C90.9169 164.084 99.5362 161.501 108.02 158.066L103.142 146.016C95.3875 149.155 87.6816 151.446 80.047 152.733L82.2085 165.552ZM131.753 146.224C139.133 141.886 146.417 137.03 153.577 131.822L145.929 121.309C139.047 126.315 132.119 130.93 125.166 135.017L131.753 146.224ZM174.055 115.804C180.668 110.299 187.167 104.595 193.525 98.83L184.793 89.199C178.536 94.8716 172.179 100.451 165.737 105.813L174.055 115.804ZM212.338 81.3171C218.677 75.295 224.873 69.3197 230.843 63.5989L221.849 54.2127C215.839 59.9713 209.696 65.8953 203.384 71.8924L212.338 81.3171ZM249.349 46.1473C256.044 40.0014 262.368 34.4606 268.302 29.7496L260.219 19.5681C253.945 24.5487 247.368 30.3187 240.558 36.5704L249.349 46.1473ZM288.391 16.5989C296.924 12.6761 302.104 13.1572 305.803 16.0317L313.78 5.76649C304.479 -1.4606 293.402 -0.0126494 282.961 4.78733L288.391 16.5989ZM315.385 34.3903C317.096 40.7616 318.467 48.7247 319.425 58.5198L332.363 57.2544C331.359 46.9883 329.89 38.2798 327.94 31.0186L315.385 34.3903ZM320.846 83.3796C320.948 87.5435 321 91.9145 321 96.4999H334C334 91.8172 333.947 87.3395 333.842 83.0608L320.846 83.3796Z" fill="#F5EC10"/>
</svg>
